<svg id="Layer_1-2" xmlns="http://www.w3.org/2000/svg" width="195" height="18.77" viewBox="0 0 195 18.77">
  <circle id="Ellipse_57" data-name="Ellipse 57" cx="1.167" cy="1.167" r="1.167" transform="translate(0 16.436)" fill="#ccc"/>
  <circle id="Ellipse_58" data-name="Ellipse 58" cx="1.167" cy="1.167" r="1.167" transform="translate(0 8.218)" fill="#ccc"/>
  <circle id="Ellipse_59" data-name="Ellipse 59" cx="1.167" cy="1.167" r="1.167" transform="translate(0 0)" fill="#ccc"/>
  <circle id="Ellipse_60" data-name="Ellipse 60" cx="1.167" cy="1.167" r="1.167" transform="translate(9.638 16.436)" fill="#ccc"/>
  <circle id="Ellipse_61" data-name="Ellipse 61" cx="1.167" cy="1.167" r="1.167" transform="translate(9.638 8.218)" fill="#ccc"/>
  <circle id="Ellipse_62" data-name="Ellipse 62" cx="1.167" cy="1.167" r="1.167" transform="translate(9.638 0)" fill="#ccc"/>
  <circle id="Ellipse_63" data-name="Ellipse 63" cx="1.167" cy="1.167" r="1.167" transform="translate(19.277 16.436)" fill="#ccc"/>
  <circle id="Ellipse_64" data-name="Ellipse 64" cx="1.167" cy="1.167" r="1.167" transform="translate(19.277 8.218)" fill="#ccc"/>
  <circle id="Ellipse_65" data-name="Ellipse 65" cx="1.167" cy="1.167" r="1.167" transform="translate(19.277 0)" fill="#ccc"/>
  <circle id="Ellipse_66" data-name="Ellipse 66" cx="1.167" cy="1.167" r="1.167" transform="translate(28.915 16.436)" fill="#ccc"/>
  <circle id="Ellipse_67" data-name="Ellipse 67" cx="1.167" cy="1.167" r="1.167" transform="translate(28.915 8.218)" fill="#ccc"/>
  <circle id="Ellipse_68" data-name="Ellipse 68" cx="1.167" cy="1.167" r="1.167" transform="translate(28.915 0)" fill="#ccc"/>
  <circle id="Ellipse_69" data-name="Ellipse 69" cx="1.167" cy="1.167" r="1.167" transform="translate(38.554 16.436)" fill="#ccc"/>
  <circle id="Ellipse_70" data-name="Ellipse 70" cx="1.167" cy="1.167" r="1.167" transform="translate(38.554 8.218)" fill="#ccc"/>
  <circle id="Ellipse_71" data-name="Ellipse 71" cx="1.167" cy="1.167" r="1.167" transform="translate(38.554 0)" fill="#ccc"/>
  <circle id="Ellipse_72" data-name="Ellipse 72" cx="1.167" cy="1.167" r="1.167" transform="translate(48.192 16.436)" fill="#ccc"/>
  <circle id="Ellipse_73" data-name="Ellipse 73" cx="1.167" cy="1.167" r="1.167" transform="translate(48.192 8.218)" fill="#ccc"/>
  <circle id="Ellipse_74" data-name="Ellipse 74" cx="1.167" cy="1.167" r="1.167" transform="translate(48.192 0)" fill="#ccc"/>
  <circle id="Ellipse_75" data-name="Ellipse 75" cx="1.167" cy="1.167" r="1.167" transform="translate(57.78 16.436)" fill="#ccc"/>
  <circle id="Ellipse_76" data-name="Ellipse 76" cx="1.167" cy="1.167" r="1.167" transform="translate(57.78 8.218)" fill="#ccc"/>
  <circle id="Ellipse_77" data-name="Ellipse 77" cx="1.167" cy="1.167" r="1.167" transform="translate(57.78 0)" fill="#ccc"/>
  <circle id="Ellipse_78" data-name="Ellipse 78" cx="1.167" cy="1.167" r="1.167" transform="translate(67.418 16.436)" fill="#ccc"/>
  <circle id="Ellipse_79" data-name="Ellipse 79" cx="1.167" cy="1.167" r="1.167" transform="translate(67.418 8.218)" fill="#ccc"/>
  <circle id="Ellipse_80" data-name="Ellipse 80" cx="1.167" cy="1.167" r="1.167" transform="translate(67.418 0)" fill="#ccc"/>
  <circle id="Ellipse_81" data-name="Ellipse 81" cx="1.167" cy="1.167" r="1.167" transform="translate(77.056 16.436)" fill="#ccc"/>
  <circle id="Ellipse_82" data-name="Ellipse 82" cx="1.167" cy="1.167" r="1.167" transform="translate(77.056 8.218)" fill="#ccc"/>
  <circle id="Ellipse_83" data-name="Ellipse 83" cx="1.167" cy="1.167" r="1.167" transform="translate(77.056 0)" fill="#ccc"/>
  <circle id="Ellipse_84" data-name="Ellipse 84" cx="1.167" cy="1.167" r="1.167" transform="translate(86.695 16.436)" fill="#ccc"/>
  <circle id="Ellipse_85" data-name="Ellipse 85" cx="1.167" cy="1.167" r="1.167" transform="translate(86.695 8.218)" fill="#ccc"/>
  <circle id="Ellipse_86" data-name="Ellipse 86" cx="1.167" cy="1.167" r="1.167" transform="translate(86.695 0)" fill="#ccc"/>
  <circle id="Ellipse_87" data-name="Ellipse 87" cx="1.167" cy="1.167" r="1.167" transform="translate(96.333 16.436)" fill="#ccc"/>
  <circle id="Ellipse_88" data-name="Ellipse 88" cx="1.167" cy="1.167" r="1.167" transform="translate(96.333 8.218)" fill="#ccc"/>
  <circle id="Ellipse_89" data-name="Ellipse 89" cx="1.167" cy="1.167" r="1.167" transform="translate(96.333 0)" fill="#ccc"/>
  <circle id="Ellipse_90" data-name="Ellipse 90" cx="1.167" cy="1.167" r="1.167" transform="translate(105.972 16.436)" fill="#ccc"/>
  <circle id="Ellipse_91" data-name="Ellipse 91" cx="1.167" cy="1.167" r="1.167" transform="translate(105.972 8.218)" fill="#ccc"/>
  <circle id="Ellipse_92" data-name="Ellipse 92" cx="1.167" cy="1.167" r="1.167" transform="translate(105.972 0)" fill="#ccc"/>
  <circle id="Ellipse_93" data-name="Ellipse 93" cx="1.167" cy="1.167" r="1.167" transform="translate(115.61 16.436)" fill="#ccc"/>
  <circle id="Ellipse_94" data-name="Ellipse 94" cx="1.167" cy="1.167" r="1.167" transform="translate(115.61 8.218)" fill="#ccc"/>
  <circle id="Ellipse_95" data-name="Ellipse 95" cx="1.167" cy="1.167" r="1.167" transform="translate(115.61 0)" fill="#ccc"/>
  <circle id="Ellipse_96" data-name="Ellipse 96" cx="1.167" cy="1.167" r="1.167" transform="translate(125.248 16.436)" fill="#ccc"/>
  <circle id="Ellipse_97" data-name="Ellipse 97" cx="1.167" cy="1.167" r="1.167" transform="translate(125.248 8.218)" fill="#ccc"/>
  <circle id="Ellipse_98" data-name="Ellipse 98" cx="1.167" cy="1.167" r="1.167" transform="translate(125.248 0)" fill="#ccc"/>
  <circle id="Ellipse_99" data-name="Ellipse 99" cx="1.167" cy="1.167" r="1.167" transform="translate(134.887 16.436)" fill="#ccc"/>
  <circle id="Ellipse_100" data-name="Ellipse 100" cx="1.167" cy="1.167" r="1.167" transform="translate(134.887 8.218)" fill="#ccc"/>
  <circle id="Ellipse_101" data-name="Ellipse 101" cx="1.167" cy="1.167" r="1.167" transform="translate(134.887 0)" fill="#ccc"/>
  <circle id="Ellipse_102" data-name="Ellipse 102" cx="1.167" cy="1.167" r="1.167" transform="translate(144.475 16.436)" fill="#ccc"/>
  <circle id="Ellipse_103" data-name="Ellipse 103" cx="1.167" cy="1.167" r="1.167" transform="translate(144.475 8.218)" fill="#ccc"/>
  <circle id="Ellipse_104" data-name="Ellipse 104" cx="1.167" cy="1.167" r="1.167" transform="translate(144.475 0)" fill="#ccc"/>
  <circle id="Ellipse_105" data-name="Ellipse 105" cx="1.167" cy="1.167" r="1.167" transform="translate(154.113 16.436)" fill="#ccc"/>
  <circle id="Ellipse_106" data-name="Ellipse 106" cx="1.167" cy="1.167" r="1.167" transform="translate(154.113 8.218)" fill="#ccc"/>
  <circle id="Ellipse_107" data-name="Ellipse 107" cx="1.167" cy="1.167" r="1.167" transform="translate(154.113 0)" fill="#ccc"/>
  <circle id="Ellipse_108" data-name="Ellipse 108" cx="1.167" cy="1.167" r="1.167" transform="translate(163.751 16.436)" fill="#ccc"/>
  <circle id="Ellipse_109" data-name="Ellipse 109" cx="1.167" cy="1.167" r="1.167" transform="translate(163.751 8.218)" fill="#ccc"/>
  <circle id="Ellipse_110" data-name="Ellipse 110" cx="1.167" cy="1.167" r="1.167" transform="translate(163.751 0)" fill="#ccc"/>
  <circle id="Ellipse_111" data-name="Ellipse 111" cx="1.167" cy="1.167" r="1.167" transform="translate(173.39 16.436)" fill="#ccc"/>
  <circle id="Ellipse_112" data-name="Ellipse 112" cx="1.167" cy="1.167" r="1.167" transform="translate(173.39 8.218)" fill="#ccc"/>
  <circle id="Ellipse_113" data-name="Ellipse 113" cx="1.167" cy="1.167" r="1.167" transform="translate(173.39 0)" fill="#ccc"/>
  <circle id="Ellipse_114" data-name="Ellipse 114" cx="1.167" cy="1.167" r="1.167" transform="translate(183.028 16.436)" fill="#ccc"/>
  <circle id="Ellipse_115" data-name="Ellipse 115" cx="1.167" cy="1.167" r="1.167" transform="translate(183.028 8.218)" fill="#ccc"/>
  <circle id="Ellipse_116" data-name="Ellipse 116" cx="1.167" cy="1.167" r="1.167" transform="translate(183.028 0)" fill="#ccc"/>
  <circle id="Ellipse_117" data-name="Ellipse 117" cx="1.167" cy="1.167" r="1.167" transform="translate(192.666 16.436)" fill="#ccc"/>
  <circle id="Ellipse_118" data-name="Ellipse 118" cx="1.167" cy="1.167" r="1.167" transform="translate(192.666 8.218)" fill="#ccc"/>
  <circle id="Ellipse_119" data-name="Ellipse 119" cx="1.167" cy="1.167" r="1.167" transform="translate(192.666 0)" fill="#ccc"/>
</svg>
