<svg xmlns="http://www.w3.org/2000/svg" width="264.8" height="251" viewBox="0 0 264.8 251">
  <g id="dotted" transform="translate(-4.9 -3.3)">
    <ellipse id="Ellipse_1" data-name="Ellipse 1" cx="2.6" cy="2.5" rx="2.6" ry="2.5" transform="translate(4.9 249.3)" fill="#ccc"/>
    <ellipse id="Ellipse_2" data-name="Ellipse 2" cx="2.6" cy="2.5" rx="2.6" ry="2.5" transform="translate(4.9 214.1)" fill="#ccc"/>
    <ellipse id="Ellipse_3" data-name="Ellipse 3" cx="2.6" cy="2.5" rx="2.6" ry="2.5" transform="translate(4.9 179)" fill="#ccc"/>
    <ellipse id="Ellipse_4" data-name="Ellipse 4" cx="2.6" cy="2.5" rx="2.6" ry="2.5" transform="translate(4.9 143.9)" fill="#ccc"/>
    <ellipse id="Ellipse_5" data-name="Ellipse 5" cx="2.6" cy="2.5" rx="2.6" ry="2.5" transform="translate(4.9 108.7)" fill="#ccc"/>
    <ellipse id="Ellipse_6" data-name="Ellipse 6" cx="2.6" cy="2.5" rx="2.6" ry="2.5" transform="translate(4.9 73.7)" fill="#ccc"/>
    <ellipse id="Ellipse_7" data-name="Ellipse 7" cx="2.6" cy="2.5" rx="2.6" ry="2.5" transform="translate(4.9 38.5)" fill="#ccc"/>
    <ellipse id="Ellipse_8" data-name="Ellipse 8" cx="2.6" cy="2.5" rx="2.6" ry="2.5" transform="translate(4.9 3.3)" fill="#ccc"/>
    <ellipse id="Ellipse_9" data-name="Ellipse 9" cx="2.6" cy="2.5" rx="2.6" ry="2.5" transform="translate(48.2 249.3)" fill="#ccc"/>
    <ellipse id="Ellipse_10" data-name="Ellipse 10" cx="2.6" cy="2.5" rx="2.6" ry="2.5" transform="translate(48.2 214.1)" fill="#ccc"/>
    <ellipse id="Ellipse_11" data-name="Ellipse 11" cx="2.6" cy="2.5" rx="2.6" ry="2.5" transform="translate(48.2 179)" fill="#ccc"/>
    <ellipse id="Ellipse_12" data-name="Ellipse 12" cx="2.6" cy="2.5" rx="2.6" ry="2.5" transform="translate(48.2 143.9)" fill="#ccc"/>
    <ellipse id="Ellipse_13" data-name="Ellipse 13" cx="2.6" cy="2.5" rx="2.6" ry="2.5" transform="translate(48.2 108.7)" fill="#ccc"/>
    <ellipse id="Ellipse_14" data-name="Ellipse 14" cx="2.6" cy="2.5" rx="2.6" ry="2.5" transform="translate(48.2 73.7)" fill="#ccc"/>
    <ellipse id="Ellipse_15" data-name="Ellipse 15" cx="2.6" cy="2.5" rx="2.6" ry="2.5" transform="translate(48.2 38.5)" fill="#ccc"/>
    <ellipse id="Ellipse_16" data-name="Ellipse 16" cx="2.6" cy="2.5" rx="2.6" ry="2.5" transform="translate(48.2 3.3)" fill="#ccc"/>
    <ellipse id="Ellipse_17" data-name="Ellipse 17" cx="2.6" cy="2.5" rx="2.6" ry="2.5" transform="translate(91.5 249.3)" fill="#ccc"/>
    <ellipse id="Ellipse_18" data-name="Ellipse 18" cx="2.6" cy="2.5" rx="2.6" ry="2.5" transform="translate(91.5 214.1)" fill="#ccc"/>
    <ellipse id="Ellipse_19" data-name="Ellipse 19" cx="2.6" cy="2.5" rx="2.6" ry="2.5" transform="translate(91.5 179)" fill="#ccc"/>
    <ellipse id="Ellipse_20" data-name="Ellipse 20" cx="2.6" cy="2.5" rx="2.6" ry="2.5" transform="translate(91.5 143.9)" fill="#ccc"/>
    <ellipse id="Ellipse_21" data-name="Ellipse 21" cx="2.6" cy="2.5" rx="2.6" ry="2.5" transform="translate(91.5 108.7)" fill="#ccc"/>
    <ellipse id="Ellipse_22" data-name="Ellipse 22" cx="2.6" cy="2.5" rx="2.6" ry="2.5" transform="translate(91.5 73.7)" fill="#ccc"/>
    <ellipse id="Ellipse_23" data-name="Ellipse 23" cx="2.6" cy="2.5" rx="2.6" ry="2.5" transform="translate(91.5 38.5)" fill="#ccc"/>
    <ellipse id="Ellipse_24" data-name="Ellipse 24" cx="2.6" cy="2.5" rx="2.6" ry="2.5" transform="translate(91.5 3.3)" fill="#ccc"/>
    <ellipse id="Ellipse_25" data-name="Ellipse 25" cx="2.6" cy="2.5" rx="2.6" ry="2.5" transform="translate(134.7 249.3)" fill="#ccc"/>
    <ellipse id="Ellipse_26" data-name="Ellipse 26" cx="2.6" cy="2.5" rx="2.6" ry="2.5" transform="translate(134.7 214.1)" fill="#ccc"/>
    <ellipse id="Ellipse_27" data-name="Ellipse 27" cx="2.6" cy="2.5" rx="2.6" ry="2.5" transform="translate(134.7 179)" fill="#ccc"/>
    <ellipse id="Ellipse_28" data-name="Ellipse 28" cx="2.6" cy="2.5" rx="2.6" ry="2.5" transform="translate(134.7 143.9)" fill="#ccc"/>
    <ellipse id="Ellipse_29" data-name="Ellipse 29" cx="2.6" cy="2.5" rx="2.6" ry="2.5" transform="translate(134.7 108.7)" fill="#ccc"/>
    <ellipse id="Ellipse_30" data-name="Ellipse 30" cx="2.6" cy="2.5" rx="2.6" ry="2.5" transform="translate(134.7 73.7)" fill="#ccc"/>
    <ellipse id="Ellipse_31" data-name="Ellipse 31" cx="2.6" cy="2.5" rx="2.6" ry="2.5" transform="translate(134.7 38.5)" fill="#ccc"/>
    <ellipse id="Ellipse_32" data-name="Ellipse 32" cx="2.6" cy="2.5" rx="2.6" ry="2.5" transform="translate(134.7 3.3)" fill="#ccc"/>
    <ellipse id="Ellipse_33" data-name="Ellipse 33" cx="2.6" cy="2.5" rx="2.6" ry="2.5" transform="translate(178 249.3)" fill="#ccc"/>
    <ellipse id="Ellipse_34" data-name="Ellipse 34" cx="2.6" cy="2.5" rx="2.6" ry="2.5" transform="translate(178 214.1)" fill="#ccc"/>
    <ellipse id="Ellipse_35" data-name="Ellipse 35" cx="2.6" cy="2.5" rx="2.6" ry="2.5" transform="translate(178 179)" fill="#ccc"/>
    <ellipse id="Ellipse_36" data-name="Ellipse 36" cx="2.6" cy="2.5" rx="2.6" ry="2.5" transform="translate(178 143.9)" fill="#ccc"/>
    <ellipse id="Ellipse_37" data-name="Ellipse 37" cx="2.6" cy="2.5" rx="2.6" ry="2.5" transform="translate(178 108.7)" fill="#ccc"/>
    <ellipse id="Ellipse_38" data-name="Ellipse 38" cx="2.6" cy="2.5" rx="2.6" ry="2.5" transform="translate(178 73.7)" fill="#ccc"/>
    <ellipse id="Ellipse_39" data-name="Ellipse 39" cx="2.6" cy="2.5" rx="2.6" ry="2.5" transform="translate(178 38.5)" fill="#ccc"/>
    <ellipse id="Ellipse_40" data-name="Ellipse 40" cx="2.6" cy="2.5" rx="2.6" ry="2.5" transform="translate(178 3.3)" fill="#ccc"/>
    <ellipse id="Ellipse_41" data-name="Ellipse 41" cx="2.6" cy="2.5" rx="2.6" ry="2.5" transform="translate(221.2 249.3)" fill="#ccc"/>
    <ellipse id="Ellipse_42" data-name="Ellipse 42" cx="2.6" cy="2.5" rx="2.6" ry="2.5" transform="translate(221.2 214.1)" fill="#ccc"/>
    <ellipse id="Ellipse_43" data-name="Ellipse 43" cx="2.6" cy="2.5" rx="2.6" ry="2.5" transform="translate(221.2 179)" fill="#ccc"/>
    <ellipse id="Ellipse_44" data-name="Ellipse 44" cx="2.6" cy="2.5" rx="2.6" ry="2.5" transform="translate(221.2 143.9)" fill="#ccc"/>
    <ellipse id="Ellipse_45" data-name="Ellipse 45" cx="2.6" cy="2.5" rx="2.6" ry="2.5" transform="translate(221.2 108.7)" fill="#ccc"/>
    <ellipse id="Ellipse_46" data-name="Ellipse 46" cx="2.6" cy="2.5" rx="2.6" ry="2.5" transform="translate(221.2 73.7)" fill="#ccc"/>
    <ellipse id="Ellipse_47" data-name="Ellipse 47" cx="2.6" cy="2.5" rx="2.6" ry="2.5" transform="translate(221.2 38.5)" fill="#ccc"/>
    <ellipse id="Ellipse_48" data-name="Ellipse 48" cx="2.6" cy="2.5" rx="2.6" ry="2.5" transform="translate(221.2 3.3)" fill="#ccc"/>
    <ellipse id="Ellipse_49" data-name="Ellipse 49" cx="2.6" cy="2.5" rx="2.6" ry="2.5" transform="translate(264.5 249.3)" fill="#ccc"/>
    <ellipse id="Ellipse_50" data-name="Ellipse 50" cx="2.6" cy="2.5" rx="2.6" ry="2.5" transform="translate(264.5 214.1)" fill="#ccc"/>
    <ellipse id="Ellipse_51" data-name="Ellipse 51" cx="2.6" cy="2.5" rx="2.6" ry="2.5" transform="translate(264.5 179)" fill="#ccc"/>
    <ellipse id="Ellipse_52" data-name="Ellipse 52" cx="2.6" cy="2.5" rx="2.6" ry="2.5" transform="translate(264.5 143.9)" fill="#ccc"/>
    <ellipse id="Ellipse_53" data-name="Ellipse 53" cx="2.6" cy="2.5" rx="2.6" ry="2.5" transform="translate(264.5 108.7)" fill="#ccc"/>
    <ellipse id="Ellipse_54" data-name="Ellipse 54" cx="2.6" cy="2.5" rx="2.6" ry="2.5" transform="translate(264.5 73.7)" fill="#ccc"/>
    <ellipse id="Ellipse_55" data-name="Ellipse 55" cx="2.6" cy="2.5" rx="2.6" ry="2.5" transform="translate(264.5 38.5)" fill="#ccc"/>
    <ellipse id="Ellipse_56" data-name="Ellipse 56" cx="2.6" cy="2.5" rx="2.6" ry="2.5" transform="translate(264.5 3.3)" fill="#ccc"/>
  </g>
</svg>
