<?xml version="1.0" encoding="utf-8"?>
<svg viewBox="0 0 695.24 217.97" xmlns="http://www.w3.org/2000/svg">
  <defs>
    <style>.cls-1{fill:#00ff97;}.cls-2{fill:none;stroke:#000;stroke-miterlimit:10;stroke-width:2px;}</style>
  </defs>
  <g id="Layer_2" data-name="Layer 2">
    <g id="Layer_1-2" data-name="Layer 1">
      <rect class="cls-2" x="556.97" y="6.3" width="137.27" height="61" rx="8.43" style="fill: rgb(255, 255, 255);"/>
      <path class="cls-1" d="M212.94,108.8c0,58-48.53,104-106.56,104S1.52,166.92,1.52,108.9,48.55,1.63,106.57,1.63,212.94,50.77,212.94,108.8Z"/>
      <path d="M179.67,28.16a107.22,107.22,0,0,0-162,20.18,1.54,1.54,0,0,0,1.29,2.4,1.53,1.53,0,0,0,1.3-.7A104.11,104.11,0,0,1,177.57,30.45a1.55,1.55,0,0,0,2.1-2.29Z"/>
      <path d="M143.81,206.43a1.55,1.55,0,0,0-2-.94,116.47,116.47,0,0,1-35.72,5.89,104.41,104.41,0,0,1-28.29-4.23,1.55,1.55,0,1,0-.87,3,107.28,107.28,0,0,0,65.91-1.71A1.55,1.55,0,0,0,143.81,206.43Z"/>
      <path d="M61.8,201A104.16,104.16,0,0,1,3.1,107.24v-.67a103.31,103.31,0,0,1,9-41.71A1.55,1.55,0,1,0,9.29,63.6,106.42,106.42,0,0,0,0,106.55v.69a107.28,107.28,0,0,0,60.44,96.52,1.51,1.51,0,0,0,.68.16A1.55,1.55,0,0,0,61.8,201Z"/>
      <path d="M201.36,55.79a1.55,1.55,0,0,0-2.05-.64l-.61.3a1.55,1.55,0,0,0,.53,2.93A104.16,104.16,0,0,1,159.6,197.26a1.55,1.55,0,0,0-.56,2.12,1.57,1.57,0,0,0,1.35.77,1.6,1.6,0,0,0,.78-.21A107.28,107.28,0,0,0,201.36,55.79Z"/>
      <path d="M77.39,210.19a1.56,1.56,0,0,1-1.46-1L17.73,49.6a1.56,1.56,0,0,1,2-2l23.42,8.84a1.56,1.56,0,0,1-1.1,2.91L21.81,51.71l55.42,152L105,109.45,86.53,59.18c-5.29-.35-10.11-1-10.16-1a5.58,5.58,0,0,1-5.31-6.14,5.81,5.81,0,0,1,6.26-5.66l.3,0,10.92,2.84,33.58,6.86a1.55,1.55,0,0,1,1,.72,1.5,1.5,0,0,1,.16,1.24l-15.07,51.22,34.15,93.18L198.23,56.82,175.85,29A1.55,1.55,0,1,1,178.27,27l22.94,28.56a1.55,1.55,0,0,1,.23,1.52L143.79,207.51a1.55,1.55,0,0,1-2.9,0l-34.13-93.13L78.87,209.07a1.55,1.55,0,0,1-1.44,1.12ZM76.91,49.52a2.73,2.73,0,0,0-2.75,2.74,2.53,2.53,0,0,0,2.49,2.87c.15,0,5.51.68,11.08,1a1.55,1.55,0,0,1,1.37,1l17.33,47.3,13.42-45.58-32-6.54L77,49.52Z"/>
      <circle id="Dots" cx="142.35" cy="206.95" r="8.8"/>
      <path d="M142.35,217.3A10.35,10.35,0,1,1,152.7,207,10.36,10.36,0,0,1,142.35,217.3Zm0-17.6a7.25,7.25,0,1,0,7.24,7.25A7.26,7.26,0,0,0,142.35,199.7Z"/>
      <circle id="Dots-2" data-name="Dots" cx="178.49" cy="29.25" r="8.8"/>
      <path d="M178.49,39.6a10.36,10.36,0,1,1,10.35-10.35A10.36,10.36,0,0,1,178.49,39.6Zm0-17.6a7.25,7.25,0,1,0,7.24,7.25A7.26,7.26,0,0,0,178.49,22Z"/>
      <circle id="Dots-3" data-name="Dots" cx="122.21" cy="58.04" r="8.8"/>
      <path d="M122.21,68.4A10.36,10.36,0,1,1,132.56,58,10.37,10.37,0,0,1,122.21,68.4Zm0-17.6A7.25,7.25,0,1,0,129.46,58,7.25,7.25,0,0,0,122.21,50.8Z"/>
      <circle id="Dots-4" data-name="Dots" cx="77.16" cy="207.62" r="8.8"/>
      <path d="M77.16,218a10.35,10.35,0,1,1,10.35-10.35A10.36,10.36,0,0,1,77.16,218Zm0-17.6a7.25,7.25,0,1,0,7.25,7.25A7.25,7.25,0,0,0,77.16,200.37Z"/>
      <circle id="Dots-5" data-name="Dots" cx="19.19" cy="49.06" r="8.8"/>
      <path d="M19.19,59.41A10.35,10.35,0,1,1,29.54,49.06,10.36,10.36,0,0,1,19.19,59.41Zm0-17.59a7.25,7.25,0,1,0,7.25,7.24A7.25,7.25,0,0,0,19.19,41.82Z"/>
      <circle id="Dots-6" data-name="Dots" cx="42.61" cy="57.9" r="8.8"/>
      <path d="M42.61,68.26A10.36,10.36,0,1,1,53,57.9,10.37,10.37,0,0,1,42.61,68.26Zm0-17.6a7.25,7.25,0,1,0,7.25,7.24A7.25,7.25,0,0,0,42.61,50.66Z"/>
      <circle id="Dots-7" data-name="Dots" cx="77.32" cy="50.1" r="8.8"/>
      <path d="M77.32,60.45A10.36,10.36,0,1,1,87.67,50.1,10.36,10.36,0,0,1,77.32,60.45Zm0-17.6a7.25,7.25,0,1,0,7.25,7.25A7.26,7.26,0,0,0,77.32,42.85Z"/>
      <circle id="Dots-8" data-name="Dots" cx="200" cy="56.54" r="8.8"/>
      <path d="M200,66.89a10.35,10.35,0,1,1,10.35-10.35A10.37,10.37,0,0,1,200,66.89Zm0-17.6a7.25,7.25,0,1,0,7.24,7.25A7.26,7.26,0,0,0,200,49.29Z"/>
      <path d="M298.33,88.52h22.14L331,121.8l10.56-33.28h22.29L346.42,136.9l10.55,28,26.1-76.54h26.25l-41.64,104.1H347.59L331,151.71,314.6,192.47H294.37L252.88,88.37H279l26.24,76.54,10.26-28Z"/>
      <path d="M416.65,192.47V88.37h44.42a30.56,30.56,0,0,1,13.71,3.08,35.16,35.16,0,0,1,10.7,8.07,38.39,38.39,0,0,1,7,11.29,33.56,33.56,0,0,1,2.57,12.75,36.57,36.57,0,0,1-2.42,13.2,37.91,37.91,0,0,1-6.75,11.29A31.77,31.77,0,0,1,475.44,156a31.26,31.26,0,0,1-13.64,2.94H440.69v33.57Zm24-54.54h19.65a9.28,9.28,0,0,0,7.33-3.67q3.07-3.66,3.08-10.7a18.47,18.47,0,0,0-1-6.3,12.86,12.86,0,0,0-2.56-4.4,9.93,9.93,0,0,0-3.67-2.57,11.28,11.28,0,0,0-4.1-.8H440.69Z"/>
      <path d="M530.27,132.94v59.53h-24V88.37H525l48.53,61.14V88.37h24.05v104.1H578.21Z"/>
      <path d="M615.75,192.47V88.37h24v83h50.44v21.11Z"/>
      <path d="M574,52.07V19.68h4.56V48.42h20.07v3.65Z"/>
      <path d="M604.62,52.07V19.68h4.56V52.07Z"/>
      <path d="M619.82,19.68l11.92,27.24L643.6,19.68h4.81l-14.7,32.39h-4L615,19.68Z"/>
      <path d="M678.72,48.42v3.65H654.29V19.68h24v3.65H658.85v10.5h16.88v3.42H658.85V48.42Z"/>
    </g>
  </g>
</svg>