<?xml version="1.0" encoding="UTF-8"?>
<svg width="500px" height="222px" viewBox="0 0 500 222" version="1.1" xmlns="http://www.w3.org/2000/svg" xmlns:xlink="http://www.w3.org/1999/xlink">
    <!-- Generator: Sketch 52.5 (67469) - http://www.bohemiancoding.com/sketch -->
    <title>Yoast_Logo_Large_RGB</title>
    <desc>Created with Sketch.</desc>
    <defs>
        <path d="M30.904,56.761 C31.843,18.127 61.516,18.166 71.433,32.01 C80.468,44.622 82.322,87.745 54.313,87.427 C41.413,87.285 31.284,78.566 30.904,56.761 Z M54.313,0.325 C15.679,0.325 0.221,26.255 0.221,55.133 C0.221,85.149 15.448,111.079 54.313,111.079 C93.062,111.079 108.307,83.923 108.236,56.897 C108.149,23.977 91.491,0.325 54.313,0.325 Z" id="path-1"></path>
        <linearGradient x1="49.9994229%" y1="100%" x2="49.9994229%" y2="0.000902901927%" id="linearGradient-3">
            <stop stop-color="#8E2C61" offset="0%"></stop>
            <stop stop-color="#3E0D28" offset="100%"></stop>
        </linearGradient>
        <path d="M46.682,110.283 L46.682,54.311 L66.689,54.311 L66.689,30.012 L46.682,30.012 L46.682,0.668 L15.777,0.668 L15.777,30.012 L0.1,30.012 L0.1,54.311 L15.777,54.311 L15.777,107.103 C15.777,137.112 36.698,154.946 58.776,158.636 L68,133.788 C55.128,132.157 46.8,122.538 46.682,110.283" id="path-4"></path>
        <linearGradient x1="50%" y1="100%" x2="50%" y2="0%" id="linearGradient-6">
            <stop stop-color="#8E2C61" offset="0%"></stop>
            <stop stop-color="#3E0D28" offset="100%"></stop>
        </linearGradient>
        <path d="M66.622,76.186 C42.143,103.577 19.725,77.794 42.684,66.545 C49.442,64.241 58.614,64.143 66.622,64.143 L66.622,76.186 Z M97.754,76.418 L97.754,34.344 C97.754,32.81 97.653,31.364 97.507,29.958 C94.828,-4.03 46.555,-3.961 9.168,9.089 L19.974,30.839 C44.32,19.281 58.893,22.258 63.987,27.956 C64.118,28.103 64.25,28.25 64.367,28.405 C64.382,28.424 64.395,28.444 64.41,28.463 C67.008,31.97 66.384,37.503 66.384,41.851 C34.566,41.851 0.707,46.078 0.707,80.968 C0.707,107.493 33.944,124.559 68.673,99.277 L73.825,111.709 L103.592,111.709 C100.932,97.113 97.754,84.606 97.754,76.418 Z" id="path-7"></path>
        <linearGradient x1="49.999514%" y1="100%" x2="49.999514%" y2="-0.000127558902%" id="linearGradient-9">
            <stop stop-color="#8E2C61" offset="0%"></stop>
            <stop stop-color="#3E0D28" offset="100%"></stop>
        </linearGradient>
        <path d="M35.254,32.08 C35.254,21.719 51.846,16.868 78.016,28.82 L87.068,6.84 C51.845,-3.804 3.746,-4.764 3.435,32.08 C3.286,49.733 14.613,59.237 30.915,65.297 C42.21,69.495 58.516,71.67 58.469,80.664 C58.408,92.416 33.13,94.217 10.119,78.409 L0.822,102.244 C32.205,117.863 90.566,118.305 90.256,79.155 C89.95,40.453 35.254,47.087 35.254,32.08" id="path-10"></path>
        <linearGradient x1="50.0004305%" y1="100.000153%" x2="50.0004305%" y2="0.000395637461%" id="linearGradient-12">
            <stop stop-color="#8E2C61" offset="0%"></stop>
            <stop stop-color="#3E0D28" offset="100%"></stop>
        </linearGradient>
        <path d="M98.162,0.312 L132.298,0.312 L72.681,160.126 C57.9580715,201.250698 41.5141384,220.732148 11.8782389,221.94 L8.887,221.94 L8.887,194.794 C25.084,192.617 31.729,183.854 35.722,173.615 C38.768,165.803 38.767,157.131 35.725,149.317 L0.06,57.7051206 L0.06,57.551 L31.91,57.551 L53.364,124.745 L98.162,0.312 Z" id="path-13"></path>
        <linearGradient x1="13.2194263%" y1="-2.68896529%" x2="13.2194263%" y2="76.3592597%" id="linearGradient-15">
            <stop stop-color="#6EB042" offset="0%"></stop>
            <stop stop-color="#226031" offset="100%"></stop>
        </linearGradient>
    </defs>
    <g id="Yoast_Logo_Large_RGB" stroke="none" stroke-width="1" fill="none" fill-rule="evenodd">
        <g id="Group-3" transform="translate(111.000000, 53.000000)">
            <mask id="mask-2" fill="white">
                <use xlink:href="#path-1"></use>
            </mask>
            <g id="Clip-2"></g>
            <path d="M30.904,56.761 C31.843,18.127 61.516,18.166 71.433,32.01 C80.468,44.622 82.322,87.745 54.313,87.427 C41.413,87.285 31.284,78.566 30.904,56.761 Z M54.313,0.325 C15.679,0.325 0.221,26.255 0.221,55.133 C0.221,85.149 15.448,111.079 54.313,111.079 C93.062,111.079 108.307,83.923 108.236,56.897 C108.149,23.977 91.491,0.325 54.313,0.325 Z" id="Fill-1" fill="url(#linearGradient-3)" mask="url(#mask-2)"></path>
        </g>
        <g id="Group-6" transform="translate(432.000000, 27.000000)">
            <mask id="mask-5" fill="white">
                <use xlink:href="#path-4"></use>
            </mask>
            <g id="Clip-5"></g>
            <path d="M46.682,110.283 L46.682,54.311 L66.689,54.311 L66.689,30.012 L46.682,30.012 L46.682,0.668 L15.777,0.668 L15.777,30.012 L0.1,30.012 L0.1,54.311 L15.777,54.311 L15.777,107.103 C15.777,137.112 36.698,154.946 58.776,158.636 L68,133.788 C55.128,132.157 46.8,122.538 46.682,110.283" id="Fill-4" fill="url(#linearGradient-6)" mask="url(#mask-5)"></path>
        </g>
        <g id="Group-9" transform="translate(225.000000, 52.000000)">
            <mask id="mask-8" fill="white">
                <use xlink:href="#path-7"></use>
            </mask>
            <g id="Clip-8"></g>
            <path d="M66.622,76.186 C42.143,103.577 19.725,77.794 42.684,66.545 C49.442,64.241 58.614,64.143 66.622,64.143 L66.622,76.186 Z M97.754,76.418 L97.754,34.344 C97.754,32.81 97.653,31.364 97.507,29.958 C94.828,-4.03 46.555,-3.961 9.168,9.089 L19.974,30.839 C44.32,19.281 58.893,22.258 63.987,27.956 C64.118,28.103 64.25,28.25 64.367,28.405 C64.382,28.424 64.395,28.444 64.41,28.463 C67.008,31.97 66.384,37.503 66.384,41.851 C34.566,41.851 0.707,46.078 0.707,80.968 C0.707,107.493 33.944,124.559 68.673,99.277 L73.825,111.709 L103.592,111.709 C100.932,97.113 97.754,84.606 97.754,76.418 Z" id="Fill-7" fill="url(#linearGradient-9)" mask="url(#mask-8)"></path>
        </g>
        <g id="Group-12" transform="translate(335.000000, 52.000000)">
            <mask id="mask-11" fill="white">
                <use xlink:href="#path-10"></use>
            </mask>
            <g id="Clip-11"></g>
            <path d="M35.254,32.08 C35.254,21.719 51.846,16.868 78.016,28.82 L87.068,6.84 C51.845,-3.804 3.746,-4.764 3.435,32.08 C3.286,49.733 14.613,59.237 30.915,65.297 C42.21,69.495 58.516,71.67 58.469,80.664 C58.408,92.416 33.13,94.217 10.119,78.409 L0.822,102.244 C32.205,117.863 90.566,118.305 90.256,79.155 C89.95,40.453 35.254,47.087 35.254,32.08" id="Fill-10" fill="url(#linearGradient-12)" mask="url(#mask-11)"></path>
        </g>
        <g id="Group-15">
            <mask id="mask-14" fill="white">
                <use xlink:href="#path-13"></use>
            </mask>
            <g id="Clip-14"></g>
            <polygon id="Fill-13" fill="url(#linearGradient-15)" mask="url(#mask-14)" points="0.06 221.94 500 221.94 500 0.312 0.06 0.312"></polygon>
        </g>
    </g>
</svg>